<svg width="220" height="100" viewBox="0 0 220 100" fill="none" xmlns="http://www.w3.org/2000/svg">
<path fill-rule="evenodd" clip-rule="evenodd" d="M50 5H170C189.218 5 205.621 17.0464 212.072 34H217.385C210.713 14.2327 192.019 0 170 0H50C22.3858 0 0 22.3858 0 50C0 77.6142 22.3858 100 50 100H170C197.614 100 220 77.6142 220 50C220 46.2207 219.581 42.5394 218.786 39H213.646H195.203H192H191H189.571L182.851 66.456L175.939 39H170.115L178.755 71H186.627L193.863 44H214.603C214.865 45.9628 215 47.9656 215 50C215 74.8528 194.853 95 170 95H50C25.1472 95 5 74.8528 5 50C5 25.1472 25.1472 5 50 5ZM49.304 68.696C51.0107 67.16 51.864 64.5573 51.864 60.888V36.184C51.864 32.6427 50.8827 30.104 48.92 28.568C46.9573 26.9893 44.056 26.2 40.216 26.2H28.44V71H40.984C44.8667 71 47.64 70.232 49.304 68.696ZM45.016 32.28C45.8693 33.0907 46.296 34.2 46.296 35.608V61.528C46.296 63.1493 45.912 64.344 45.144 65.112C44.376 65.8373 43.1813 66.2 41.56 66.2H34.008V31H41.624C43.032 31 44.1627 31.4267 45.016 32.28ZM71.262 68.312C73.2673 66.4773 74.27 63.7467 74.27 60.12V26.2H59.038V31H68.702V61.336C68.702 62.6587 68.2113 63.7893 67.23 64.728C66.2487 65.6667 64.9687 66.136 63.39 66.136H56.67V71H62.75C66.462 71 69.2993 70.104 71.262 68.312ZM84.5025 26.2V71H104.342V66.136H90.0705V26.2H84.5025ZM131.617 68.696C133.323 67.16 134.176 64.5573 134.176 60.888V36.184C134.176 32.6427 133.195 30.104 131.232 28.568C129.27 26.9893 126.368 26.2 122.529 26.2H110.753V71H123.297C127.179 71 129.952 70.232 131.617 68.696ZM127.328 32.28C128.182 33.0907 128.609 34.2 128.609 35.608V61.528C128.609 63.1493 128.225 64.344 127.456 65.112C126.688 65.8373 125.494 66.2 123.872 66.2H116.321V31H123.937C125.344 31 126.475 31.4267 127.328 32.28ZM146.104 68.632C147.853 70.2107 150.605 71 154.36 71H162.616V66.2H153.72C152.141 66.2 150.947 65.8373 150.136 65.112C149.325 64.3867 148.92 63.3627 148.92 62.04V57.24H164.664V48.92C164.664 45.6773 163.875 43.224 162.296 41.56C160.76 39.8533 158.477 39 155.448 39H153.72C150.051 39 147.427 39.7893 145.848 41.368C144.269 42.9467 143.48 45.5707 143.48 49.24V60.76C143.48 64.3867 144.355 67.0107 146.104 68.632ZM159.352 47.64V52.44H148.92V47.96C148.92 46.5947 149.219 45.5707 149.816 44.888C150.456 44.1627 151.544 43.8 153.08 43.8H155.512C156.621 43.8 157.539 44.1627 158.264 44.888C158.989 45.6133 159.352 46.5307 159.352 47.64Z" fill="#6DFFE5"/>
</svg>
