<svg width="220" height="100" viewBox="0 0 220 100" fill="none" xmlns="http://www.w3.org/2000/svg">
<path d="M51.864 60.888C51.864 64.5573 51.0107 67.16 49.304 68.696C47.64 70.232 44.8667 71 40.984 71H28.44V26.2H40.216C44.056 26.2 46.9573 26.9893 48.92 28.568C50.8827 30.104 51.864 32.6427 51.864 36.184V60.888ZM46.296 35.608C46.296 34.2 45.8693 33.0907 45.016 32.28C44.1627 31.4267 43.032 31 41.624 31H34.008V66.2H41.56C43.1813 66.2 44.376 65.8373 45.144 65.112C45.912 64.344 46.296 63.1493 46.296 61.528V35.608ZM74.27 60.12C74.27 63.7467 73.2673 66.4773 71.262 68.312C69.2993 70.104 66.462 71 62.75 71H56.67V66.136H63.39C64.9687 66.136 66.2487 65.6667 67.23 64.728C68.2113 63.7893 68.702 62.6587 68.702 61.336V31H59.038V26.2H74.27V60.12ZM84.5025 71V26.2H90.0705V66.136H104.343V71H84.5025ZM134.177 60.888C134.177 64.5573 133.323 67.16 131.617 68.696C129.953 70.232 127.179 71 123.297 71H110.753V26.2H122.529C126.369 26.2 129.27 26.9893 131.233 28.568C133.195 30.104 134.177 32.6427 134.177 36.184V60.888ZM128.609 35.608C128.609 34.2 128.182 33.0907 127.329 32.28C126.475 31.4267 125.345 31 123.937 31H116.321V66.2H123.873C125.494 66.2 126.689 65.8373 127.457 65.112C128.225 64.344 128.609 63.1493 128.609 61.528V35.608ZM154.36 71C150.605 71 147.853 70.2107 146.104 68.632C144.355 67.0107 143.48 64.3867 143.48 60.76V49.24C143.48 45.5707 144.269 42.9467 145.848 41.368C147.427 39.7893 150.051 39 153.72 39H155.448C158.477 39 160.76 39.8533 162.296 41.56C163.875 43.224 164.664 45.6773 164.664 48.92V57.24H148.92V62.04C148.92 63.3627 149.325 64.3867 150.136 65.112C150.947 65.8373 152.141 66.2 153.72 66.2H162.616V71H154.36ZM159.352 52.44V47.64C159.352 46.5307 158.989 45.6133 158.264 44.888C157.539 44.1627 156.621 43.8 155.512 43.8H153.08C151.544 43.8 150.456 44.1627 149.816 44.888C149.219 45.5707 148.92 46.5947 148.92 47.96V52.44H159.352ZM186.627 71H178.755L170.115 39H175.939L182.851 66.456L189.571 39H195.203L186.627 71Z" fill="#C58940"/>
<path fill-rule="evenodd" clip-rule="evenodd" d="M170 5H50C25.1472 5 5 25.1472 5 50C5 74.8528 25.1472 95 50 95H170C194.853 95 215 74.8528 215 50C215 47.9656 214.865 45.9628 214.603 44H191V39H192H213.646H218.786C219.581 42.5394 220 46.2207 220 50C220 77.6142 197.614 100 170 100H50C22.3858 100 0 77.6142 0 50C0 22.3858 22.3858 0 50 0H170C192.019 0 210.713 14.2327 217.385 34H212.072C205.621 17.0464 189.218 5 170 5Z" fill="#C58940"/>
</svg>
