<svg width="32" height="32" viewBox="0 0 32 32" fill="none" xmlns="http://www.w3.org/2000/svg">
<path d="M16.8805 31.9084C15.9658 31.908 15.0527 31.8335 14.1501 31.6855C9.7351 30.961 5.78817 28.5138 3.17617 24.8814C0.564174 21.249 -0.499318 16.7284 0.219271 12.3124C0.62138 9.79848 1.5905 7.40907 3.05317 5.32529C4.51584 3.2415 6.43369 1.51803 8.66134 0.285493C9.03717 0.0755002 9.46541 -0.0221304 9.89512 0.00421207C10.3248 0.0305545 10.7379 0.179762 11.0853 0.434088C11.4404 0.677026 11.7172 1.01791 11.882 1.41528C12.0469 1.81264 12.0928 2.24936 12.014 2.6723L10.8067 2.57943L11.949 2.78375C11.3045 6.20235 11.9068 9.73873 13.6465 12.7513C15.3862 15.7639 18.1482 18.053 21.4312 19.2035C23.9596 20.081 26.6795 20.2512 29.2975 19.6958C29.7118 19.6145 30.1405 19.6505 30.5354 19.7998C30.9302 19.9491 31.2755 20.2057 31.5324 20.5408C31.7892 20.8758 31.9473 21.2759 31.989 21.696C32.0306 22.1161 31.954 22.5395 31.7679 22.9184C30.3355 25.6266 28.1933 27.894 25.5707 29.4776C22.9482 31.0613 19.9441 31.9016 16.8805 31.9084ZM9.66436 2.3844C7.88799 3.39164 6.34347 4.76144 5.13123 6.40476C3.91899 8.04808 3.06616 9.92812 2.62818 11.9227C2.19021 13.9172 2.17689 15.9816 2.5891 17.9816C3.00131 19.9817 3.82982 21.8725 5.02076 23.5314C6.45619 25.5379 8.37845 27.1463 10.6067 28.2052C12.835 29.2642 15.296 29.7389 17.7583 29.5847C20.2205 29.4305 22.6031 28.6525 24.6819 27.3239C26.7606 25.9952 28.4672 24.1596 29.6411 21.9897C26.6539 22.5902 23.5607 22.385 20.679 21.3953C16.8766 20.0621 13.6764 17.413 11.6564 13.9266C9.63641 10.4401 8.92985 6.34623 9.66436 2.3844Z" fill="#C58940"/>
</svg>
