<svg width="32" height="34" viewBox="0 0 32 34" fill="none" xmlns="http://www.w3.org/2000/svg">
<path d="M17.7102 1.81649V5.49567C17.7102 6.75336 17.1513 7.35836 15.9875 7.35836C14.8237 7.35836 14.2649 6.75336 14.2649 5.49567V1.81649C14.2649 0.605 14.8237 0 15.9875 0C17.1513 0 17.7102 0.605 17.7102 1.81649ZM21.2031 6.65948L23.3459 3.63298C24.0448 2.70164 24.9299 2.51537 25.8136 3.16657C26.6972 3.81776 26.7911 4.65672 26.0937 5.68194L23.9509 8.66224C23.252 9.68746 22.4146 9.77985 21.4832 9.12865C20.5981 8.47597 20.5057 7.6847 21.2031 6.66097V6.65948ZM8.62918 3.67918L10.8182 6.65948C11.5171 7.6847 11.4232 8.47597 10.4919 9.12716C9.60672 9.82604 8.76926 9.68597 8.07038 8.66075L5.88135 5.68045C5.18247 4.65523 5.27635 3.86396 6.20769 3.21276C7.09284 2.51388 7.9303 2.65396 8.62918 3.67918ZM15.9875 9.45351C19.9931 9.45351 23.252 12.714 23.252 16.718C23.252 20.6758 19.9916 23.8901 15.9875 23.8901C11.9835 23.8901 8.72306 20.6773 8.72306 16.718C8.72306 12.7125 11.9835 9.45351 15.9875 9.45351ZM2.38993 10.4787L5.92903 11.5963C7.09284 11.9689 7.51306 12.6678 7.14053 13.7854C6.81418 14.903 6.02291 15.2293 4.81142 14.8568L1.36471 13.7392C0.2009 13.3666 -0.219322 12.6216 0.107021 11.504C0.479558 10.4325 1.22612 10.1062 2.38993 10.4787ZM26.0922 11.5963L29.5852 10.4787C30.7966 10.1062 31.5417 10.4325 31.8666 11.504C32.2391 12.6216 31.8204 13.3666 30.6089 13.693L27.1622 14.8568C25.9984 15.2293 25.2533 14.903 24.8808 13.7854C24.5544 12.6678 24.9269 11.9689 26.0922 11.5963ZM15.9875 20.7235C18.2228 20.7235 20.0393 18.907 20.0393 16.718C20.0393 14.4828 18.2228 12.6663 15.9875 12.6663C13.7523 12.6663 11.982 14.4828 11.982 16.718C11.982 18.907 13.7523 20.7235 15.9875 20.7235ZM1.36471 19.6521L4.85762 18.5345C6.02142 18.1619 6.81418 18.4406 7.13904 19.5597C7.51157 20.6773 7.09284 21.3762 5.92754 21.7487L2.38844 22.9125C1.22463 23.2851 0.479558 22.9587 0.107021 21.8411C-0.219322 20.7235 0.2009 20.0246 1.36471 19.6521ZM27.1637 18.5345L30.6566 19.6521C31.8204 20.0246 32.2406 20.7235 31.8681 21.8411C31.5417 22.9587 30.7966 23.2851 29.5866 22.9125L26.0937 21.7487C24.8822 21.3762 24.5574 20.6773 24.8822 19.5597C25.2548 18.4421 25.9999 18.1619 27.1637 18.5345ZM5.88284 27.6616L8.07187 24.7275C8.77075 23.7023 9.60821 23.5637 10.4934 24.2611C11.4247 24.9138 11.5186 25.7051 10.8197 26.7288L8.63067 29.6629C7.93179 30.6881 7.09433 30.8744 6.16299 30.2217C5.27784 29.569 5.18545 28.6869 5.88284 27.6616ZM23.9509 24.7275L26.0937 27.6616C26.7926 28.6869 26.6987 29.5705 25.8136 30.2232C24.9284 30.8759 24.0433 30.6419 23.3459 29.7106L21.2031 26.7303C20.5042 25.7051 20.5981 24.9138 21.4832 24.2626C22.4146 23.6099 23.2535 23.7023 23.9509 24.7275ZM17.7102 27.8479V31.5271C17.7102 32.7848 17.1513 33.3898 15.9875 33.3898C14.8237 33.3898 14.2649 32.7848 14.2649 31.5271V27.8479C14.2649 26.5902 14.8237 25.9852 15.9875 25.9852C17.1513 25.9852 17.7102 26.5902 17.7102 27.8479Z" fill="#6DFFE5"/>
</svg>
